<?xml version="1.0" encoding="UTF-8"?><svg id="Layer_2" xmlns="http://www.w3.org/2000/svg" viewBox="0 0 72 84.99"><defs><style>.cls-1{fill:#020000;}</style></defs><g id="base"><g><path class="cls-1" d="M50.66,20.04l-1.56-4.12h-4.17v-3.06c0-7.09-5.77-12.87-12.87-12.87H12.87C5.77,0,0,5.77,0,12.87v14.48c0,3.35,1.64,6.48,4.38,8.37l4.09,2.84L0,41.31v12.09c0,7.09,5.77,12.87,12.87,12.87h12.45v18.73l21.34-6.93,1.56,4.12h23.78V13.11l-21.34,6.93Zm18.31,59.11h-18.66l-1.93-5.1v.27l-20.03,6.5v-17.59H12.87c-5.42,0-9.84-4.41-9.84-9.84v-9.89l12.19-3.97-9.11-6.32c-1.93-1.33-3.08-3.53-3.08-5.88V12.87C3.03,7.44,7.44,3.03,12.87,3.03h19.19c5.42,0,9.84,4.41,9.84,9.84v6.09h5.11l1.93,5.09v-.26l20.03-6.5v61.87Z"/><path class="cls-1" d="M37.45,53.39v-15c0-.89-.44-1.72-1.17-2.23l-17.69-12.25,.03-6.56h7.68v5.8l11.15-3.63v-6.66c0-2.98-2.41-5.39-5.39-5.39H12.87c-2.98,0-5.39,2.41-5.39,5.39v14.48c0,.89,.44,1.72,1.17,2.23l17.66,12.24v7.09h-7.68v-5.8l-11.15,3.63v6.66c0,2.98,2.41,5.39,5.39,5.39h19.19c2.98,0,5.39-2.41,5.39-5.39Zm15.93-26.38v21.27l-9.44-24.89h-11.15v8.25l4.47,3.09c1.2,.83,1.91,2.19,1.91,3.65v15c0,3.67-2.81,6.67-6.38,7.05v14.27l11.15-3.62v-21.37l9.44,24.99h11.15V23.4l-11.15,3.62Z"/></g></g></svg>