<?xml version="1.0" encoding="UTF-8"?><svg id="Layer_2" xmlns="http://www.w3.org/2000/svg" viewBox="0 0 375.55 194.55"><defs><style>.cls-1{fill:#020000;}.cls-2{fill:#fff;}.cls-3{fill:#b70000;}</style></defs><g id="Layer_1-2"><g><rect class="cls-2" x="136.37" y="125.48" width="183.27" height="61.58" rx="9.41" ry="9.41" transform="translate(-13.44 21.7) rotate(-5.29)"/><path class="cls-3" d="M312.42,176.11l-163.75,15.17c-3.39,.31-6.4-2.19-6.71-5.57l-3.94-42.57c-.31-3.39,2.19-6.4,5.57-6.71l163.75-15.17c3.39-.31,6.4,2.19,6.71,5.57l3.94,42.57c.31,3.39-2.19,6.4-5.57,6.71Zm-168.43-35.38c-1.01,.09-1.76,.99-1.66,2l3.94,42.57c.09,1.01,.99,1.76,2,1.66l163.75-15.17c1.01-.09,1.76-.99,1.66-2l-3.94-42.57c-.09-1.01-.99-1.76-2-1.66l-163.75,15.17Z"/><g><path class="cls-3" d="M154.2,180.97l-3.19-34.48,21.23-1.97,2.47,26.62,13.05-1.21,.73,7.86-34.29,3.18Z"/><path class="cls-3" d="M192.19,177.45l-3.19-34.48,21.23-1.97,3.19,34.48-21.23,1.97Z"/><path class="cls-3" d="M227.55,174.17l-14.84-33.4,22.18-2.05,5.86,21.56,1.77-22.27,22.18-2.05-8.45,35.56-28.69,2.66Z"/><path class="cls-3" d="M270.31,170.21l-3.19-34.48,34.29-3.18,.73,7.86-13.05,1.21,.35,3.77,13.05-1.21,.73,7.86-13.05,1.21,.66,7.13,13.05-1.21,.73,7.86-34.29,3.18Z"/></g></g><g><g><path class="cls-2" d="M369.2,96.73l.09,.98-1.3,.12,.45,4.96-1.2,.11-.45-4.96-1.3,.12-.09-.98,3.79-.34Z"/><path class="cls-2" d="M369.74,96.68l1.78-.16,1.23,4.12h.02l.48-4.27,1.77-.16,.54,5.94-1.1,.1-.43-4.74h-.02l-.63,4.84-.93,.08-1.49-4.65h-.02l.43,4.74-1.1,.1-.54-5.94Z"/></g><path class="cls-1" d="M256.02,129.76c.02-.07,2.55-7.6,3.4-16.86l-14.89,1.38-2.47-5.06-12.21,5.25-3.43,1.48-10.97,4.72-.34-3.66-34.85,3.23-2.46-5.06-26.6,11.44-6.82-73.63-9.31,40.42,2.84,30.69-34.27,3.17-2.51-27.09c-2.66,4.02-7.18,6.61-13.07,7.15l-6.7,.62,1.95,21.06-60.25,5.77c-9.18,.85-17.34-5.93-18.2-15.11l-1.45-15.61,10.36-4.47-5.31-3c-3.79-2.14-6.29-6-6.69-10.33L.07,67.71c-.85-9.18,5.93-17.34,15.11-18.2l158.54-14.69,2.47,5.06,10.96-4.72-7.97-15.57,25.55,7.58,23.73-12.15-4.49,15.14,14-1.3,2.47,5.06,12.21-5.25-1.2-12.93c-.71-7.65,5.1-14.47,12.94-15.2l5.32-.49c7.85-.73,14.8,4.91,15.51,12.56l1.21,13.07,16.97,3.28c2.78-4.08,7.29-6.82,12.3-7.29l24.61-2.28c9.18-.85,17.34,5.93,18.19,15.11l1.45,15.61-10.36,4.47,5.31,3c3.79,2.14,6.29,6,6.69,10.33l1.72,18.56c.85,9.18-5.93,17.34-15.11,18.19l-34.8,3.01-1.36,.13-18.7,1.73c-.71,8.78-3.62,16.04-8.84,22.11-6.17,7.18-14.7,10.11-16.35,10.63l-18.54,5.82,6.37-18.35Z"/><path class="cls-2" d="M259.71,131.04c.04-.12,3.59-10.59,3.88-22.45l-16.73,1.55-2.92-5.98-18.24,7.85v.09l-.27,.03-6.56,2.82-.2-2.2-36.05,3.34-2.91-5.98-25.08,10.79-7.38-79.69,24.17-2.24,2.92,5.98,18.23-7.84-5.71-11.16,18.3,5.43,16.99-8.7-3.54,11.92,17.07-1.58,2.92,5.98,18.24-7.85-1.46-15.76c-.51-5.5,3.71-10.41,9.41-10.94l5.32-.49c5.7-.53,10.75,3.52,11.26,9.03l1.48,15.99,22.13,4.27,.32,.57c1.68-4.44,5.77-7.77,10.81-8.24l24.61-2.28c7.03-.65,13.29,4.54,13.94,11.57l1.18,12.78-14.99,6.47,12.18,6.87c2.67,1.51,4.44,4.23,4.72,7.29l1.72,18.56c.65,7.03-4.54,13.29-11.58,13.94l-32.34,2.78-6.4-10.73-2.34,.28,1.03,11.17-18.19,1.68c-.14,9.41-2.8,17.02-8.06,23.14-5.59,6.5-13.65,9.17-14.55,9.45l-11.12,3.49,3.82-11.01Zm-236.99-.14c-7.03,.65-13.29-4.54-13.94-11.57l-1.18-12.78,14.99-6.47-12.18-6.87c-2.67-1.51-4.44-4.23-4.72-7.29l-1.72-18.56c-.65-7.03,4.54-13.29,11.58-13.94l95.71-8.81,2.68,7.04,1.34-7.41,27.71-2.57-11.85,51.48,2.54,27.42-26.48,2.45-2.55-27.51-5.28-11.99,.48,5.21c.78,8.43-3.75,13.93-12.13,14.7l-10.6,.98,1.95,21.06-56.35,5.41Zm26.25-44.68l-.71-7.7-7.34,3.17,8.05,4.54Z"/><path class="cls-1" d="M115.95,73.47l-8.6-22.62-15.22,1.41,.03,.34,18.23,41.41,2.09,22.61,14.79-1.37-2.09-22.53,10.31-44.14-.03-.34-15.22,1.41-4.3,23.81ZM40.7,56.97l-24.61,2.28c-3.82,.35-6.63,3.74-6.27,7.55l1.72,18.56c.11,1.14,.76,2.16,1.76,2.72l24.1,13.6,.84,9.09-9.85,.91-.69-7.43-13.86,5.98,.79,8.54c.35,3.82,3.74,6.63,7.55,6.27l24.61-2.28c3.82-.35,6.63-3.74,6.27-7.55l-1.78-19.23c-.11-1.14-.76-2.16-1.76-2.72l-24.14-13.6-.74-8.42,9.85-.91,.69,7.43,13.86-5.98-.79-8.54c-.35-3.82-3.74-6.63-7.55-6.27Zm42,26.57c3.92-4.97,3.07-12.21-1.9-16.13-4.97-3.92-12.21-3.07-16.13,1.9-3.92,4.97-3.07,12.21,1.9,16.13,4.97,3.92,12.21,3.07,16.13-1.9Zm-.14-9.65c0-.32,0-.64-.02-.96,.25,.82,.39,1.68,.42,2.53,.09,2.54-.78,5.11-2.65,7.13-1.86,2.01-4.37,3.08-6.9,3.19-.78,.03-1.57-.03-2.34-.18,.23,0,.46-.02,.69-.05,2.7-.27,5.42-1.58,7.53-3.86,2.11-2.28,3.2-5.09,3.27-7.8Zm-18.19,5.75c-.25-.82-.39-1.68-.42-2.53-.09-2.54,.78-5.11,2.65-7.13,1.86-2.01,4.37-3.08,6.9-3.19,.78-.03,1.57,.03,2.34,.18-.23,0-.46,.02-.69,.05-2.7,.27-5.42,1.58-7.53,3.86-2.11,2.28-3.2,5.09-3.27,7.8,0,.32,0,.64,.02,.96Zm18.79-26.41l-31.08,2.88,3.57,38.49,5.25-6.66c.69-.88,1.85-1.18,2.85-.82l.78-.98c-1.1-.99-2.01-2.14-2.72-3.44-.83-1.51-1.35-3.15-1.56-4.86-.2-1.72-.07-3.43,.38-5.09,.47-1.72,1.28-3.31,2.39-4.72,1.11-1.41,2.47-2.56,4.03-3.42,1.51-.83,3.15-1.35,4.86-1.56,1.72-.2,3.43-.07,5.09,.38,1.72,.47,3.31,1.28,4.72,2.39,1.41,1.11,2.56,2.47,3.42,4.04,.83,1.51,1.35,3.15,1.56,4.86,.2,1.72,.07,3.43-.38,5.09-.47,1.72-1.28,3.31-2.39,4.72-1.11,1.41-2.47,2.56-4.03,3.42-1.51,.83-3.15,1.35-4.86,1.56-1.72,.2-3.43,.07-5.09-.38-1.43-.39-2.76-1.01-3.98-1.85l-.82,1.04c.46,.87,.4,1.96-.25,2.78l-8.58,10.72,1.83,19.71,14.56-1.35-1.95-21.06,16.44-1.52c5.14-.48,7.31-3.1,6.83-8.32l-2.7-29.11c-.48-5.14-3.1-7.4-8.16-6.93Zm99.81,22.75l-15.06-30.79-14.29,1.32,6.1,65.8,13.86-5.96-2.54-27.41,15.07,30.93,14.29-1.32-6.1-65.8-13.86,5.96,2.53,27.28Zm22.07,32.13l14.29-1.32-5.2-56.15-14.29,1.32,5.2,56.15Zm77.11-73.3l6.06,65.38,13.23-1.23-1.02-11.03,11.81-1.39,6.45,10.82,15.15-1.4-32.64-57.48-19.04-3.67Zm21.57,42.09l-5.78-2.85-.71-18.78,9.73,16.08-3.24,5.55Zm45.86-32.96l-.79-8.54c-.35-3.82-3.74-6.63-7.55-6.27l-24.61,2.28c-3.82,.35-6.63,3.74-6.27,7.55l.76,8.2,10.17,17.92,16.76,9.44,.74,8.42-6.99,.65,6.9,12.15,8.65-.8c3.82-.35,6.63-3.74,6.27-7.55l-1.72-18.56c-.11-1.14-.76-2.16-1.76-2.72l-24.1-13.6-.84-9.09,9.85-.91,.69,7.43,13.86-5.98ZM270.62,9.8l-5.32,.49c-2.48,.23-4.32,2.27-4.1,4.56l3.23,34.87,14.29-1.32-3.23-34.87c-.21-2.29-2.39-3.95-4.87-3.72Zm.67,36.23l-3.91-1.14,3.63-1.84,3.91,1.14-3.63,1.84Zm-.36-3.88l-3.91-1.14,3.63-1.84,3.91,1.14-3.63,1.84Zm-.36-3.88l-3.91-1.14,3.63-1.84,3.91,1.14-3.63,1.84Zm-.36-3.88l-3.91-1.14,3.63-1.84,3.91,1.14-3.63,1.84Zm-.36-3.88l-3.91-1.14,3.63-1.84,3.91,1.14-3.63,1.84Zm-.36-3.88l-3.91-1.14,3.63-1.84,3.91,1.14-3.63,1.84Zm-.36-3.88l-3.91-1.14,3.63-1.84,3.91,1.14-3.63,1.84Zm-.36-3.88l-3.91-1.14,3.63-1.84,3.91,1.14-3.63,1.84Zm-63.06,18.84l-7.41-2.2,3.52,6.88-2.2,7.41,6.88-3.52,7.41,2.2-3.52-6.88,2.2-7.41-6.88,3.52Zm.53,5.71c-.78,.07-1.48-.5-1.55-1.29s.5-1.48,1.29-1.55,1.48,.5,1.55,1.29-.5,1.48-1.29,1.55Zm52.31-6.59l-13.86,5.96,2.53,27.28-15.06-30.79-14.29,1.32,6.1,65.8,13.86-5.96-2.54-27.41,15.07,30.93,14.29-1.32-6.1-65.8Zm10.67,64.72c1.46,15.79-3.97,31.44-3.97,31.44,0,0,7.2-2.26,11.86-7.68,4.94-5.75,7.47-13.59,6.4-25.09l-4.67-50.38-14.29,1.32,4.67,50.38Zm-1.19-48.75l.89-.07,4.19,45.22c1.7,17.53-1.57,24.24-1.57,24.24,0,0,2.22-9.55,.8-24.18l-4.31-45.21Z"/></g></g></svg>